Coordinates
version=1
nRows=22
nColumns=24
inDegrees=yes

Units are S.I. units (second, meters, Newtons, ...)
Angles are in degrees.

endheader
time	pelvis_tilt	pelvis_list	pelvis_rotation	pelvis_tx	pelvis_ty	pelvis_tz	hip_flexion_r	hip_adduction_r	hip_rotation_r	knee_angle_r	ankle_angle_r	subtalar_angle_r	mtp_angle_r	hip_flexion_l	hip_adduction_l	hip_rotation_l	knee_angle_l	ankle_angle_l	subtalar_angle_l	mtp_angle_l	lumbar_extension	lumbar_bending	lumbar_rotation
      3.41000000	     -2.79581090	      0.78198505	     -6.36030370	      0.06766542	      0.93897991	      0.04212075	     -2.21230001	      3.07797443	     12.98844591	    -20.77497752	     24.54823098	      0.00000000	      0.00000000	     22.74165304	     -2.39217079	     -5.64004617	      4.29970115	      2.22315087	      0.00000000	      0.00000000	     -6.90441395	      1.78549963	      6.85930441
      3.42000000	     -2.79293427	      0.80350538	     -6.82432647	      0.06887827	      0.93800276	      0.04165814	     -2.81358257	      2.87023812	     13.38515396	    -20.69767461	     24.48373606	      0.00000000	      0.00000000	     22.74469485	     -2.38360992	     -5.64206464	      3.60056755	      1.92935544	      0.00000000	      0.00000000	     -6.80898967	      1.66931343	      7.01327087
      3.43000000	     -2.79429118	      0.82673813	     -7.29121549	      0.07027792	      0.93710556	      0.04108056	     -3.41817540	      2.63182712	     13.70779195	    -20.60591401	     24.36630535	      0.00000000	      0.00000000	     22.74990579	     -2.35961679	     -5.70478684	      2.80332605	      1.54770692	      0.00000000	      0.00000000	     -6.68770130	      1.55718875	      7.20832767
      3.44000000	     -2.79719442	      0.87222831	     -7.72697098	      0.07185368	      0.93633833	      0.04039293	     -4.02810459	      2.35280476	     14.01496341	    -20.50192069	     24.16896482	      0.00000000	      0.00000000	     22.77609453	     -2.29921424	     -5.83219029	      1.90919359	      1.06244627	      0.00000000	      0.00000000	     -6.54600592	      1.42014587	      7.35886551
      3.45000000	     -2.77924324	      0.96276717	     -8.12441664	      0.07357795	      0.93573717	      0.03965890	     -4.68712125	      2.00973124	     14.32829946	    -20.33539676	     23.79444107	      0.00000000	      0.00000000	     22.82898727	     -2.17284515	     -6.12273165	      0.90216018	      0.44222246	      0.00000000	      0.00000000	     -6.40181350	      1.21843152	      7.48853253
      3.46000000	     -2.77983282	      1.10547508	     -8.48311467	      0.07548388	      0.93530232	      0.03868932	     -5.31072828	      1.57759441	     14.50889910	    -20.17097798	     23.27463360	      0.00000000	      0.00000000	     22.90611657	     -1.97931416	     -6.41366938	     -0.13768570	     -0.27034508	      0.00000000	      0.00000000	     -6.22116549	      0.97825085	      7.58722527
      3.47000000	     -2.79944126	      1.28235144	     -8.78170637	      0.07745059	      0.93497231	      0.03764949	     -5.86263524	      1.11909039	     14.57961680	    -20.09342663	     22.78600476	      0.00000000	      0.00000000	     23.06138729	     -1.76601567	     -6.51473688	     -1.28256374	     -0.98010955	      0.00000000	      0.00000000	     -5.99398643	      0.69312983	      7.69943460
      3.48000000	     -2.83029620	      1.48351631	     -9.07222770	      0.07951521	      0.93483439	      0.03645192	     -6.36726317	      0.61480247	     14.56201861	    -20.04553534	     22.24807558	      0.00000000	      0.00000000	     23.25403311	     -1.53289085	     -6.54657711	     -2.48852474	     -1.64245300	      0.00000000	      0.00000000	     -5.74537936	      0.39034265	      7.87596164
      3.49000000	     -2.85526840	      1.79225625	     -9.23571205	      0.08164689	      0.93489975	      0.03515430	     -6.85135939	      0.01739320	     14.50922186	    -20.02354549	     21.42705325	      0.00000000	      0.00000000	     23.56499465	     -1.16400772	     -6.64063067	     -3.90533942	     -2.27972898	      0.00000000	      0.00000000	     -5.48323182	     -0.04908110	      7.91974482
      3.50000000	     -2.90505944	      2.12353668	     -9.34911051	      0.08391813	      0.93513497	      0.03373021	     -7.25933999	     -0.60289812	     14.31632411	    -20.06687676	     20.46719393	      0.00000000	      0.00000000	     23.88774253	     -0.76082689	     -6.65905068	     -5.31319915	     -2.70428635	      0.00000000	      0.00000000	     -5.16502070	     -0.50182461	      7.97796316
      3.51000000	     -3.16299494	      2.47627325	     -9.21557359	      0.08637456	      0.93524506	      0.03192865	     -7.43136098	     -1.20245537	     13.70925062	    -20.14422535	     19.07885201	      0.00000000	      0.00000000	     24.56801346	     -0.28092978	     -6.40511097	     -7.01174899	     -2.49308814	      0.00000000	      0.00000000	     -4.58193636	     -0.92586636	      7.83016436
      3.52000000	     -3.28299118	      2.78505899	     -9.18564907	      0.08868083	      0.93574412	      0.03032726	     -7.64968083	     -1.74548428	     13.43119877	    -20.37383345	     17.82052895	      0.00000000	      0.00000000	     25.06754515	      0.12875514	     -6.19818788	     -8.70082426	     -2.37170669	      0.00000000	      0.00000000	     -4.18872836	     -1.35286772	      7.85794097
      3.53000000	     -3.49901915	      3.02498976	     -9.05053772	      0.09109130	      0.93624999	      0.02858423	     -7.74135463	     -2.17469858	     13.14147156	    -20.66889151	     16.38972653	      0.00000000	      0.00000000	     25.67661361	      0.51241265	     -5.72563956	    -10.47442769	     -1.86555166	      0.00000000	      0.00000000	     -3.68048249	     -1.67757348	      7.85938185
      3.54000000	     -3.44591729	      3.36054693	     -9.09826152	      0.09344939	      0.93732847	      0.02712272	     -7.95886308	     -2.73412284	     13.11355313	    -21.17618274	     15.06235296	      0.00000000	      0.00000000	     25.75593415	      0.98049682	     -5.46886937	    -11.77068114	     -1.78669084	      0.00000000	      0.00000000	     -3.46621473	     -2.18099868	      8.09403998
      3.55000000	     -3.64627372	      3.56829374	     -8.88666109	      0.09609462	      0.93815274	      0.02525905	     -7.95046871	     -3.12919480	     12.64224611	    -21.60467308	     13.01741812	      0.00000000	      0.00000000	     26.14680879	      1.41756589	     -5.02288894	    -13.27925332	     -0.72707248	      0.00000000	      0.00000000	     -2.94118977	     -2.46379311	      8.08725726
      3.56000000	     -3.54861833	      3.85430306	     -8.89113022	      0.09843430	      0.93950120	      0.02379087	     -7.99408919	     -3.57771554	     12.77027756	    -22.46770596	     11.45390304	      0.00000000	      0.00000000	     25.98508443	      1.90937263	     -4.61431944	    -14.28804214	     -0.40796241	      0.00000000	      0.00000000	     -2.77670655	     -2.91404085	      8.30513857
      3.57000000	     -3.64384174	      4.04430100	     -8.79903718	      0.10108738	      0.94072482	      0.02210292	     -7.86338736	     -3.95747015	     12.41966528	    -23.19060946	      9.05330000	      0.00000000	      0.00000000	     25.91357788	      2.33856557	     -4.42289078	    -15.17932882	      0.72848394	      0.00000000	      0.00000000	     -2.34256661	     -3.19519293	      8.46959924
      3.58000000	     -3.53063891	      4.20726049	     -8.74906197	      0.10331006	      0.94221515	      0.02062417	     -7.69838036	     -4.21102017	     12.62635055	    -24.41396182	      7.27219396	      0.00000000	      0.00000000	     25.50021228	      2.77425829	     -3.96256880	    -15.80246456	      1.27178350	      0.00000000	      0.00000000	     -2.21633329	     -3.50824563	      8.62248865
      3.59000000	     -3.44978343	      4.33537429	     -8.75539623	      0.10557767	      0.94370839	      0.01913300	     -7.36184050	     -4.46604411	     12.58916437	    -25.76851911	      4.94104664	      0.00000000	      0.00000000	     24.98479226	      3.15436538	     -3.75640572	    -16.20688767	      2.15819796	      0.00000000	      0.00000000	     -2.02881700	     -3.74764923	      8.82677524
      3.60000000	     -3.50386126	      4.41497847	     -8.81909774	      0.10799967	      0.94512843	      0.01777227	     -6.94774803	     -4.67500794	     12.65092530	    -26.87939867	      2.18536644	      0.00000000	      0.00000000	     24.51902544	      3.43566681	     -3.78745989	    -16.49729488	      3.19185178	      0.00000000	      0.00000000	     -1.64428326	     -3.90158396	      9.11925665
      3.61000000	     -3.40816978	      4.44846160	     -8.89333254	      0.10991780	      0.94662838	      0.01653900	     -6.38575925	     -4.76321094	     12.81697213	    -28.55487557	     -0.15772669	      0.00000000	      0.00000000	     23.83072419	      3.68546821	     -3.68116970	    -16.60799535	      3.96077972	      0.00000000	      0.00000000	     -1.50499498	     -4.04035308	      9.30140785
      3.62000000	     -3.32484202	      4.48076893	     -9.02292398	      0.11168397	      0.94807087	      0.01541123	     -5.69733717	     -4.83909533	     13.01864555	    -30.33794563	     -2.55768325	      0.00000000	      0.00000000	     23.09525052	      3.90738293	     -3.71297483	    -16.58424333	      4.70184263	      0.00000000	      0.00000000	     -1.35423855	     -4.17177775	      9.48065915
